<?xml version="1.0" encoding="UTF-8"?>
<svg id="Capa_1" data-name="Capa 1" xmlns="http://www.w3.org/2000/svg" viewBox="0 0 177.02 201.09">
  <defs>
    <style>
      .cls-1 {
        fill-rule: evenodd;
        stroke-width: 0px;
      }
    </style>
  </defs>
  <path class="cls-1" d="M83.67,172.47c-1.27,0-2.13,0-2.99,0-6,.01-12-.03-18,.05-3.55.05-6.58-1.12-9.18-3.47-6.42-5.78-12.84-11.56-19.24-17.36-.65-.59-1.31-1.2-1.81-1.91-1.92-2.68-.45-5.84,2.83-6.11.79-.07,1.6-.03,2.4-.03,14.24,0,28.48.02,42.72.03.95,0,1.9,0,3.02,0,.11-.79.26-1.4.27-2,0-5.84.07-11.68-.05-17.52-.13-6.03-1.46-11.8-5.14-16.71-7.05-9.39-16.6-13.23-28.04-11.05-11.04,2.11-18.08,9.1-21,20-.59,2.21-.79,4.59-.79,6.89-.05,19.84-.02,39.68,0,59.51,0,2.73.06,5.45-.87,8.07-2.04,5.77-6.15,9.16-12.19,9.75-5.38.52-9.91-1.43-13.03-6.02-1.72-2.53-2.26-5.42-2.25-8.45.03-8.24.1-16.48.06-24.72-.08-12.88-.2-25.75-.37-38.63-.27-20.47,13.12-46.92,41.78-53.82,12.79-3.08,25.54-2.74,37.58,2.85,16.54,7.66,27.61,20.17,31.55,38.32.67,3.1.91,6.35.92,9.53.09,21.2.08,42.4.05,63.59,0,2.15-.17,4.33-.58,6.43-1.23,6.26-6.44,10.5-12.78,11.32-6.81.88-14.29-5.41-14.71-12.3-.27-4.38-.11-8.79-.14-13.19,0-.86,0-1.73,0-3.05Z"/>
  <path class="cls-1" d="M123.12,30.41c.82.75,1.6,1.21,2.01,1.89.7,1.15,1.22,2.42,1.75,3.67,3.59,8.47,9.84,14.21,18.21,17.79.51.22,1.06.39,1.53.68,2.17,1.31,2.17,3.43-.04,4.68-1.32.74-2.72,1.34-4.09,1.99-7.01,3.32-12.02,8.59-15.22,15.63-.5,1.09-.95,2.2-1.46,3.28-.27.57-.56,1.17-.95,1.65-1.25,1.52-2.84,1.49-3.97-.13-.54-.77-.9-1.69-1.26-2.57-3.52-8.72-9.62-14.96-18.16-18.83-.8-.36-1.65-.64-2.39-1.1-1.98-1.21-1.93-3.41.08-4.6.55-.32,1.16-.53,1.75-.79,8.92-3.9,15.29-10.28,18.88-19.38.32-.81.62-1.69,1.16-2.35.5-.6,1.32-.94,2.19-1.52Z"/>
  <path class="cls-1" d="M177.02,84.6c-.32.37-.72,1.07-1.32,1.46-.93.61-1.99,1.02-3,1.49-5.93,2.74-10.14,7.13-12.74,13.11-.45,1.03-.85,2.09-1.43,3.04-1.09,1.78-2.65,1.75-3.74-.01-.33-.54-.57-1.14-.81-1.73-2.84-7.02-7.78-11.99-14.68-15.05-.66-.29-1.35-.55-1.93-.95-1.49-1.02-1.45-2.46.07-3.48.46-.31,1-.5,1.51-.72,7.07-3.08,12.2-8.08,15.08-15.3.27-.67.54-1.34.92-1.95.99-1.56,2.36-1.55,3.41,0,.31.46.56.97.76,1.49,2.96,7.66,8.24,13.01,15.88,16.04,1,.39,1.87.95,2.01,2.56Z"/>
  <path class="cls-1" d="M156.67,0c.64.54,1.38.92,1.76,1.52.64,1,1.08,2.14,1.56,3.23,2.8,6.4,7.55,10.8,13.85,13.64.73.33,1.51.59,2.15,1.04,1.38.98,1.37,2.38-.03,3.32-.79.53-1.68.92-2.56,1.3-6.47,2.83-11.02,7.52-13.72,14.04-.4.96-.8,1.94-1.4,2.77-1.03,1.43-2.3,1.39-3.29-.05-.45-.65-.74-1.41-1.05-2.15-2.84-6.92-7.74-11.83-14.53-14.9-.73-.33-1.5-.6-2.14-1.06-1.37-.99-1.32-2.35.07-3.34.38-.27.84-.45,1.29-.63,7.36-3.12,12.63-8.28,15.55-15.77.26-.67.57-1.34,1-1.9.31-.4.86-.62,1.5-1.06Z"/>
</svg>