<?xml version="1.0" encoding="utf-8"?>
<!-- Generator: Adobe Illustrator 28.2.0, SVG Export Plug-In . SVG Version: 6.00 Build 0)  -->
<svg version="1.1" id="Capa_1" xmlns="http://www.w3.org/2000/svg" xmlns:xlink="http://www.w3.org/1999/xlink" x="0px" y="0px"
	 viewBox="0 0 213.3 237" style="enable-background:new 0 0 213.3 237;" xml:space="preserve">
<style type="text/css">
	.st0{fill-rule:evenodd;clip-rule:evenodd;fill:#FFFFFF;stroke:#000000;stroke-width:3;stroke-miterlimit:10;}
</style>
<path class="st0" d="M103.7,195.5c-1.3,0-2.1,0-3,0c-6,0-12,0-18,0.1c-3.5,0.1-6.6-1.1-9.2-3.5c-6.4-5.8-12.8-11.6-19.2-17.4
	c-0.7-0.6-1.3-1.2-1.8-1.9c-1.9-2.7-0.5-5.8,2.8-6.1c0.8-0.1,1.6,0,2.4,0c14.2,0,28.5,0,42.7,0c0.9,0,1.9,0,3,0
	c0.1-0.8,0.3-1.4,0.3-2c0-5.8,0.1-11.7-0.1-17.5c-0.1-6-1.5-11.8-5.1-16.7c-7.1-9.4-16.6-13.2-28-11.1c-11,2.1-18.1,9.1-21,20
	c-0.6,2.2-0.8,4.6-0.8,6.9c0,19.8,0,39.7,0,59.5c0,2.7,0.1,5.4-0.9,8.1c-2,5.8-6.1,9.2-12.2,9.8c-5.4,0.5-9.9-1.4-13-6
	c-1.7-2.5-2.3-5.4-2.2-8.4c0-8.2,0.1-16.5,0.1-24.7c-0.1-12.9-0.2-25.8-0.4-38.6C19.7,125.3,33.1,98.9,61.8,92
	c12.8-3.1,25.5-2.7,37.6,2.8c16.5,7.7,27.6,20.2,31.6,38.3c0.7,3.1,0.9,6.3,0.9,9.5c0.1,21.2,0.1,42.4,0.1,63.6
	c0,2.1-0.2,4.3-0.6,6.4c-1.2,6.3-6.4,10.5-12.8,11.3c-6.8,0.9-14.3-5.4-14.7-12.3c-0.3-4.4-0.1-8.8-0.1-13.2
	C103.7,197.7,103.7,196.8,103.7,195.5L103.7,195.5z"/>
<path class="st0" d="M143.1,53.4c0.8,0.8,1.6,1.2,2,1.9c0.7,1.2,1.2,2.4,1.8,3.7c3.6,8.5,9.8,14.2,18.2,17.8
	c0.5,0.2,1.1,0.4,1.5,0.7c2.2,1.3,2.2,3.4,0,4.7c-1.3,0.7-2.7,1.3-4.1,2c-7,3.3-12,8.6-15.2,15.6c-0.5,1.1-0.9,2.2-1.5,3.3
	c-0.3,0.6-0.6,1.2-0.9,1.7c-1.2,1.5-2.8,1.5-4-0.1c-0.5-0.8-0.9-1.7-1.3-2.6c-3.5-8.7-9.6-15-18.2-18.8c-0.8-0.4-1.7-0.6-2.4-1.1
	c-2-1.2-1.9-3.4,0.1-4.6c0.6-0.3,1.2-0.5,1.8-0.8c8.9-3.9,15.3-10.3,18.9-19.4c0.3-0.8,0.6-1.7,1.2-2.3
	C141.5,54.3,142.3,54,143.1,53.4L143.1,53.4z"/>
<path class="st0" d="M197,107.6c-0.3,0.4-0.7,1.1-1.3,1.5c-0.9,0.6-2,1-3,1.5c-5.9,2.7-10.1,7.1-12.7,13.1c-0.4,1-0.9,2.1-1.4,3
	c-1.1,1.8-2.6,1.8-3.7,0c-0.3-0.5-0.6-1.1-0.8-1.7c-2.8-7-7.8-12-14.7-15.1c-0.7-0.3-1.4-0.6-1.9-0.9c-1.5-1-1.4-2.5,0.1-3.5
	c0.5-0.3,1-0.5,1.5-0.7c7.1-3.1,12.2-8.1,15.1-15.3c0.3-0.7,0.5-1.3,0.9-1.9c1-1.6,2.4-1.5,3.4,0c0.3,0.5,0.6,1,0.8,1.5
	c3,7.7,8.2,13,15.9,16C196,105.4,196.9,106,197,107.6L197,107.6z"/>
<path class="st0" d="M176.8,24c0.6,0.6,1.3,1,1.6,1.6c0.6,0.9,1,2,1.4,3c2.8,7,7.8,11.7,14.4,14.6c0.4,0.2,0.8,0.3,1.2,0.6
	c1.7,1.1,1.7,2.8,0,3.9c-1,0.6-2.1,1.1-3.2,1.6c-5.5,2.7-9.5,7.1-12,12.9c-0.4,0.9-0.7,1.8-1.2,2.7c-0.2,0.5-0.4,1-0.7,1.4
	c-1,1.3-2.2,1.2-3.1-0.1c-0.4-0.6-0.7-1.4-1-2.1c-2.8-7.2-7.6-12.3-14.3-15.5c-0.6-0.3-1.3-0.5-1.9-0.9c-1.6-1-1.5-2.8,0.1-3.8
	c0.4-0.3,0.9-0.4,1.4-0.7c7-3.2,12.1-8.5,14.9-16c0.3-0.7,0.5-1.4,0.9-1.9C175.5,24.8,176.1,24.5,176.8,24L176.8,24z"/>
</svg>
