<?xml version="1.0" encoding="UTF-8"?>
<svg id="Capa_1" data-name="Capa 1" xmlns="http://www.w3.org/2000/svg" viewBox="0 0 441.54 128.66">
  <defs>
    <style>
      .cls-1 {
        fill-rule: evenodd;
        stroke-width: 0px;
      }
    </style>
  </defs>
  <path class="cls-1" d="M120,67.51c.34-.32.63-.59.91-.87,8.58-8.55,18.9-10.03,29.95-6.62,10.96,3.38,17.43,11.17,19.55,22.46.4,2.11.56,4.29.58,6.44.08,10.24.09,20.47.08,30.71,0,1.19-.13,2.41-.43,3.55-.94,3.55-4.14,5.69-7.79,5.35-3.61-.34-6.4-3.11-6.69-6.72-.11-1.35-.07-2.72-.07-4.08,0-9.52,0-19.04-.02-28.55,0-1.35-.09-2.72-.32-4.06-1.21-7.06-7.44-12.12-15.05-11.67-7.54.45-13.16,6.37-13.24,13.85-.11,10.4-.06,20.79-.09,31.19,0,1.12.03,2.25-.12,3.35-.75,5.44-6.03,8.23-10.93,5.83-2.33-1.15-3.72-3-3.94-5.61-.13-1.51-.12-3.04-.12-4.55-.01-9.28,0-18.55-.02-27.83,0-1.12-.05-2.24-.14-3.35-.61-7.23-6.26-12.58-13.68-12.97-6.73-.36-13.28,4.81-14.5,11.52-.23,1.25-.23,2.55-.24,3.82-.02,10.08,0,20.15-.03,30.23,0,1.42-.1,2.9-.49,4.26-.98,3.5-4.16,5.65-7.59,5.35-3.7-.32-6.42-2.87-6.93-6.51-.1-.71-.13-1.43-.13-2.15-.02-10.24-.04-20.47-.02-30.71.02-6.36,1.32-12.37,4.96-17.74,5.34-7.89,12.82-12.04,22.22-12.89,8.76-.79,16.46,1.52,22.82,7.79.28.28.58.55.89.8.12.1.27.16.64.37Z"/>
  <path class="cls-1" d="M360.77,78.82c-1.82-2.55-3.92-4.23-6.65-4.91-4.27-1.07-8.58-1.11-12.78.3-8.19,2.76-12.69,8.63-13.76,17.07-.31,2.41-.13,4.98.35,7.38,1.73,8.66,9.01,14.69,17.83,15,1.12.04,2.24.03,3.36-.06,7.45-.57,12.97-4.07,16.46-10.75,1-1.9,2.2-3.71,3.4-5.5,1.3-1.95,3.21-2.48,5.46-2.1,4.96.82,7.74,4.74,6.04,9.44-4.33,11.98-12.25,20.6-25.11,23.01-10.7,2-20.87-.4-29.77-6.93-7.31-5.36-10.91-13-12.5-21.7-4.46-24.44,16.91-42.59,37.46-40.38,12.84,1.38,22.06,7.78,28.19,18.94.49.9.87,1.9,1.11,2.9.8,3.38-.21,5.73-3.21,7.5-1.03.61-2.12,1.11-3.21,1.62-7.24,3.4-14.5,6.74-21.7,10.21-2.46,1.19-4.78,1.39-7.39.48-3.62-1.27-7.33-2.27-11-3.39-.46-.14-1.04-.16-1.34-.46-.65-.64-1.51-1.39-1.6-2.17-.07-.58.83-1.43,1.48-1.91.83-.6,1.84-.96,2.78-1.39,7.61-3.53,15.23-7.06,22.84-10.6,1.01-.47,1.99-1,3.24-1.62Z"/>
  <path class="cls-1" d="M224.91,98.62c.06-.83.14-1.37.12-1.91-.08-3.12-.34-6.24-.26-9.35.2-7.84-7.08-13.98-14.19-13.97-8.12.01-14.33,6.02-14.51,14.16-.08,3.76-.02,7.52-.02,11.27,0,6.8.02,13.59-.02,20.39,0,1.27-.08,2.58-.4,3.79-.96,3.62-4.18,5.88-7.68,5.54-3.98-.39-6.6-3.04-6.72-7.11-.13-4.31-.06-8.63-.07-12.95-.01-7.12-.06-14.23,0-21.35.1-13.57,9.07-24.99,22.32-27.86,10.96-2.38,20.78-.03,28.79,8.31,4.62,4.82,7.08,10.6,7.72,17.16.21,2.13-.17,4.3-.17,6.46-.02,9.12,0,18.23-.02,27.35,0,1.2.02,2.41-.16,3.59-.47,3.03-2.24,5.06-5.1,6.11-2.8,1.03-5.19.05-7.33-1.7-1.6-1.29-2.18-3.12-2.23-5.11-.05-1.92,0-3.84-.02-5.76-.03-1.67-.28-1.96-1.95-1.98-3.12-.04-6.24-.06-9.35.04-2.14.06-3.87-.66-5.42-2.09-3.06-2.81-6.18-5.57-9.27-8.35-.3-.27-.6-.53-.87-.82-.68-.71-1.33-1.45-.92-2.53.44-1.19,1.46-1.34,2.55-1.34,7.52.01,15.03.02,22.55.02h2.66Z"/>
  <path class="cls-1" d="M43.89,113.7c-3.48,0-6.59-.14-9.68.04-2.94.17-5.25-.79-7.32-2.84-2.22-2.19-4.62-4.19-6.94-6.27-.65-.59-1.32-1.17-1.95-1.77-.88-.83-1.85-1.66-1.24-3.07.56-1.3,1.77-1.18,2.89-1.18,7.12,0,14.23.01,21.35.02.86,0,1.72,0,2.7,0,.09-.87.2-1.48.2-2.1,0-3.12.12-6.25-.1-9.35-.41-5.61-3.07-9.89-8.27-12.28-5.13-2.35-10.15-1.97-14.76,1.36-3.97,2.87-5.77,6.92-5.76,11.8.01,10.4.02,20.79,0,31.19,0,1.27-.07,2.58-.4,3.79-.96,3.62-4.4,5.92-7.98,5.47-3.84-.48-6.39-3.17-6.46-7.12-.09-5.12.01-10.23,0-15.35-.02-5.92,0-11.84-.15-17.75-.39-15.68,11.53-28.74,27.23-29.76,10.39-.67,18.97,2.91,25.59,10.98,3.83,4.67,5.87,10.06,5.9,16.12.05,11.43,0,22.87.02,34.3,0,3.36-1.03,6.13-4.15,7.81-4.58,2.47-10.27-.6-10.66-5.79-.13-1.75-.04-3.52-.05-5.28,0-.87,0-1.74,0-2.98Z"/>
  <path class="cls-1" d="M270.15,113.15c1.44.08,2.36.16,3.28.17,7.84.07,15.68.12,23.51.18,1.36.01,2.72.03,4.08.16,3.95.38,6.54,3.04,6.75,6.84.21,3.82-2.27,7.01-6.08,7.76-.7.14-1.43.17-2.15.17-12.8,0-25.6.03-38.39-.03-5.79-.03-10.03-3.1-11.41-8.12-1.11-4.02-.26-7.58,2.66-10.63,5.59-5.83,11.16-11.68,16.74-17.52,5.14-5.38,10.28-10.76,15.41-16.14.63-.66,1.21-1.37,2.2-2.5-1.52-.07-2.45-.15-3.37-.16-7.52-.04-15.04-.06-22.56-.09-.64,0-1.28.01-1.92-.03-4.23-.29-7.19-3.4-7.16-7.52.03-4.05,3.12-7.26,7.3-7.39,3.44-.11,6.88-.04,10.32-.04,8.88,0,17.76-.02,26.64.03,6.24.04,10.57,3.95,11.38,10.13.44,3.34-.64,6.14-2.92,8.53-3.2,3.36-6.39,6.73-9.6,10.08-7.46,7.81-14.92,15.61-22.38,23.42-.69.72-1.32,1.51-2.32,2.67Z"/>
  <path class="cls-1" d="M417.6,47.04c-.32.38-.7,1.1-1.3,1.51-.92.62-1.98,1.03-3,1.5-6.25,2.85-10.64,7.5-13.33,13.79-.44,1.03-.84,2.09-1.43,3.03-1.1,1.75-2.67,1.71-3.76-.04-.33-.54-.57-1.14-.8-1.74-2.9-7.26-7.97-12.42-15.06-15.64-.65-.3-1.35-.53-1.95-.91-1.54-.98-1.55-2.7-.03-3.69.53-.34,1.15-.55,1.73-.81,7.2-3.19,12.37-8.36,15.31-15.71.21-.52.43-1.03.67-1.54.39-.83.88-1.51,1.94-1.52,1.02-.01,1.63.54,2.04,1.39.35.72.7,1.44,1,2.18,3,7.35,8.25,12.42,15.54,15.44,1.14.47,2.22.97,2.42,2.77Z"/>
  <path class="cls-1" d="M441.33,17.53c-.25.29-.57.85-1.05,1.16-.8.52-1.7.89-2.56,1.29-4.85,2.26-8.3,5.86-10.43,10.75-.38.88-.73,1.79-1.24,2.59-.93,1.45-2.07,1.44-2.99.01-.34-.53-.57-1.14-.82-1.73-2.32-5.57-6.27-9.56-11.73-12.07-.65-.3-1.35-.55-1.92-.96-1.13-.81-1.13-1.94,0-2.75.45-.32.99-.51,1.5-.74,5.73-2.55,9.9-6.64,12.27-12.49.24-.59.47-1.2.82-1.73.79-1.15,1.91-1.17,2.72-.01.45.65.76,1.4,1.06,2.14,2.38,5.77,6.52,9.76,12.23,12.18.96.41,1.97.75,2.16,2.35Z"/>
  <path class="cls-1" d="M441.54,69.46c-.46.53-.78,1.1-1.27,1.41-.8.52-1.7.88-2.57,1.29-4.85,2.25-8.3,5.86-10.43,10.75-.38.88-.73,1.79-1.25,2.58-.9,1.39-2.13,1.36-3.02-.04-.34-.53-.56-1.15-.8-1.74-2.26-5.39-6.07-9.31-11.33-11.84-.65-.31-1.34-.54-1.96-.9-1.63-.97-1.58-2.32.1-3.27.42-.23.88-.38,1.31-.58,5.55-2.52,9.59-6.52,11.92-12.19.21-.52.41-1.04.69-1.53.96-1.7,2.2-1.69,3.19.04.36.62.63,1.29.91,1.95,2.34,5.59,6.39,9.46,11.91,11.87.51.22,1.07.41,1.49.75.4.33.65.84,1.09,1.45Z"/>
</svg>